# xmcd
#
# Track frame offsets: 
#        150
#        13256
#        28262
#        40094
#        50348
#        61732
#        75429
#        87033
#        94308
#        105450
#        115652
#        127914
#        139464
#        152430
#        162852
#        175274
#        187706
#        200441
#        213574
#        226834
#        239859
#        252421
#        264145
#        275404
#        286690
#        297493
#        310177
#        322199
#        333803
#
# Disc length: 4613 seconds
#
# Revision: 0
# Processed by: cddbd v1.5.2PL0 Copyright (c) Steve Scherf et al.
# Submitted via: ExactAudioCopy v1.0b4
#
DISCID=9012031d
DTITLE=Various Artist - Influence 03 Johnny Cash: Next In Line Disc 2
DYEAR=1900
DGENRE=Country
TTITLE0=Leadbelly - Rock Island Line
TTITLE1=Dalhart, Vernon - Wreck Of The Old '97
TTITLE2=Skinner, Jimmy - Doin' My Time
TTITLE3=Reed, Jerry - If The Good Lord's Willing (And The Creek Don't 
TTITLE3=Rise)
TTITLE4=Davis, Jimmie - I Was There When It Happened
TTITLE5=Hamblen, Stuart - Remember Me (I'm The One Who Loves You)
TTITLE6=Gibson, Don - Oh, Lonesome Me
TTITLE7=Orbison, Roy - You Tell Me
TTITLE8=Williams, Hank - I Can't Help It (If I'm Still In Love With Yo
TTITLE8=u)
TTITLE9=Phillips, Charlie - Sugartime
TTITLE10=Ted Daffan's Texans - Born To Lose
TTITLE11=Stanphill, Ira - Supper - Time
TTITLE12=Rodgers, Jimmie - Frankie and Johnny
TTITLE13=Coates, Dorothy Love - That's Enough (… and The Gospel Harmonet
TTITLE13=tes)
TTITLE14=Sons Of The Pioneers - One More Ride
TTITLE15=Hilltoppers, The - I'D Rather Die Young (Then Grow Old Withou
TTITLE15=t You)
TTITLE16=Arnold, Eddy - Shepherd Of My Heart
TTITLE17=Sons Of The Pioneers - Lead Me Gently Home, Father
TTITLE18=Acuff, Roy - The Great Speckled Bird
TTITLE19=Ritter, Tex - Remember The Alamo
TTITLE20=Robbins, Marty - I Couldn'T Keep From Crying
TTITLE21=Price, Ray - My Shoes Keep Walking Back To You
TTITLE22=Husky, Ferlin - I Feel Better All Over (More Than Anywhere El
TTITLE22=se)
TTITLE23=Jones, George - Just One More
TTITLE24=Thompson, Hank - Honky Tonk Girl
TTITLE25=Williams, Hank - I'M So Lonesome I Could Cry
TTITLE26=Wills, Bob - Time Changes Everything (... And The Texas Playb
TTITLE26=oys)
TTITLE27=Hogsed, Roy - Cocaine Blues (Transfusion Blues)
TTITLE28=Rebels Quartet, The - He'll Understand And Say Well Done
EXTD=
EXTT0=
EXTT1=
EXTT2=
EXTT3=
EXTT4=
EXTT5=
EXTT6=
EXTT7=
EXTT8=
EXTT9=
EXTT10=
EXTT11=
EXTT12=
EXTT13=
EXTT14=
EXTT15=
EXTT16=
EXTT17=
EXTT18=
EXTT19=
EXTT20=
EXTT21=
EXTT22=
EXTT23=
EXTT24=
EXTT25=
EXTT26=
EXTT27=
EXTT28=
PLAYORDER=
